<svg xmlns="http://www.w3.org/2000/svg" version="1.1" xmlns:xlink="http://www.w3.org/1999/xlink" xmlns:svgjs="http://svgjs.dev/svgjs" viewBox="0 0 800 800" opacity="0.2"><g stroke-width="1" stroke="hsl(35, 100%, 58%)" fill="none"><path d="M966.9201268924651 61.19971434977924C1096.553186043189 409.24251915750165 1043.9393522004195 721.3676549986469 807.374970158058 1007.6818480665379C570.8105881156966 1293.996041134429 9.880876644858745 1566.9852069254866 -168.5889069108714 1435.5078410756541C-347.05869046660155 1304.030475225822 -122.9727394814148 813.7637120052977 -49.27999090944547 376.5904919873424C24.412757662523973 -60.58272803061277 -26.572071640816944 -597.2172030027052 185.13628623458158 -662.9236150105311C396.8446441099801 -728.6300270183569 837.2870677417416 -286.84309045794316 966.9201268924651 61.19971434977924C1096.553186043189 409.24251915750165 1043.9393522004195 721.3676549986469 807.374970158058 1007.6818480665379 "></path><path d="M943.2984485807835 75.31636112939441C1067.5301302668938 408.857382403462 1017.1085395009065 707.9773042512263 790.4010067103102 982.3617392746216C563.6934739197136 1256.7461742980176 26.13583376016095 1518.3607915144476 -144.8977088140805 1392.3616492416913C-315.9312513883219 1266.3625069689356 -101.18221502751794 796.5235255492667 -30.55999764604735 377.56585636539285C40.062219735423355 -41.39181281848107 -8.798241680278352 -555.6665180000697 194.08893461697858 -618.6351628409029C396.9761109142354 -681.603807681736 819.0667668946733 -258.2246601446727 943.2984485807835 75.31636112939441C1067.5301302668938 408.857382403462 1017.1085395009065 707.9773042512263 790.4010067103102 982.3617392746216 "></path><path d="M919.676770269102 89.43300790900992C1038.5070744905988 408.4722456494221 990.2777268013936 694.5869535038055 773.4270432625622 957.0416304827052C556.576359723731 1219.4963074616053 42.39079087546304 1469.736376103408 -121.20651071728963 1349.2154574077285C-284.8038123100423 1228.6945387120495 -79.39169057362113 779.2833390932351 -11.840004382649226 378.54122074344286C55.71168180832274 -22.200897606349486 8.97558828026024 -514.1158329974342 203.04158299937558 -574.3467106712746C397.1075777184908 -634.5775883451149 800.8464660476054 -229.6062298314024 919.676770269102 89.43300790900992C1038.5070744905988 408.4722456494221 990.2777268013936 694.5869535038055 773.4270432625622 957.0416304827052 "></path><path d="M896.0550004046863 103.54977675893781C1009.4839271615695 408.08723096569474 963.4468225491462 681.1967248266972 756.45298826208 931.7216437611016C549.4591539750138 1182.2465626955063 58.645656438030755 1421.112082762682 -97.51540417323315 1306.0693876440782C-253.67646478449706 1191.0266925254755 -57.601257672458644 762.0432747075163 6.879897328014522 379.5167071918056C71.36105232848774 -3.0098603239052864 26.749326688064457 -472.5650259244862 211.9941398290382 -530.0581364313339C397.23895297001195 -587.5512469381815 782.626073647803 -200.98767744781935 896.0550004046863 103.54977675893781C1009.4839271615695 408.08723096569474 963.4468225491462 681.1967248266972 756.45298826208 931.7216437611016 "></path><path d="M872.433383128161 117.66642353855298C980.4609324204309 407.7020942116551 936.6160708847897 667.8063740792763 739.4790858494885 906.4015349691854C542.3421008141872 1144.9966958590944 74.9006745884891 1372.4876673516428 -73.82414504128604 1262.9231958101154C-222.54896467106119 1153.3587242685887 -35.810672183405586 744.8030882514852 25.599951626568895 380.49207156985585C87.01057543654338 16.1810548882263 44.5232176837593 -431.0143409218507 220.94684924659146 -485.7696842617056C397.3704808094235 -540.5250276015605 764.4058338358914 -172.36924713454903 872.433383128161 117.66642353855298C980.4609324204309 407.7020942116551 936.6160708847897 667.8063740792763 739.4790858494885 906.4015349691854 "></path><path d="M848.8117048164795 131.78307031816826C951.4378766441359 407.3169574576152 909.7852581852767 654.4160233318555 722.5051224017407 881.0814261772689C535.2249866182044 1107.7468290226827 91.15563170379119 1323.8632519406033 -50.13294694449519 1219.7770039761529C-191.42152559278156 1115.6907560117024 -14.020147729508722 727.5629017954539 44.31994488996702 381.46743594790587C102.66003750944276 35.371970100358 62.29704764429789 -389.46365591921517 229.89949762898846 -441.48123209207733C397.5019476136788 -493.4988082649395 746.1855329888231 -143.7508168212786 848.8117048164795 131.78307031816826C951.4378766441359 407.3169574576152 909.7852581852767 654.4160233318555 722.5051224017407 881.0814261772689 "></path><path d="M825.190026504798 145.89971709778365C922.4148208678407 406.93182070357534 882.9544454857637 641.0256725844345 705.5311589539926 855.7613173853529C528.1078724222216 1070.4969621862708 107.41058881909328 1275.238836529564 -26.441748847704332 1176.63081214219C-160.29408651450194 1078.0227877548157 7.770376724388143 710.3227153394225 63.03993815336514 382.4428003259559C118.30949958234214 54.562885312489584 80.07087760483648 -347.9129709165797 238.85214601138546 -397.1927799224491C397.6334144179343 -446.4725889283185 727.9652321417552 -115.13238650800827 825.190026504798 145.89971709778365C922.4148208678407 406.93182070357534 882.9544454857637 641.0256725844345 705.5311589539926 855.7613173853529 "></path><path d="M801.5683787106948 160.01636387739904C893.3917956091241 406.5466839495357 856.1236633038291 627.6353218370136 688.5572260238227 830.4412085934366C520.9907887438169 1033.2470953498591 123.6655764519735 1226.6144211185251 -2.750520233335351 1133.4846203082272C-129.1666169186442 1040.3548194979296 29.560931695863076 693.0825288833912 81.75996193434139 383.41816470400636C133.95899217281965 73.75380052462128 97.84473808295326 -306.36228591394416 247.80482491136058 -352.90432775282085C397.76491173976785 -399.44636959169753 709.7449618122655 -86.51395619473783 801.5683787106948 160.01636387739904C893.3917956091241 406.5466839495357 856.1236633038291 627.6353218370136 688.5572260238227 830.4412085934366 "></path><path d="M777.9467003990133 174.1331327273267C864.3687398328289 406.16166926580854 829.2928506043161 614.2450931599055 671.583262576075 805.1212218718326C513.8736745478342 995.99735058376 139.9205335672757 1177.9901277777983 20.940677863455562 1090.338550544577C-98.03917784036457 1002.6869733113554 51.35145614975994 675.8424644976726 100.47995519773951 384.3936511523689C149.60845424571903 92.94483780706537 115.61856804349185 -264.8114788409962 256.7574732937576 -308.6157535128801C397.89637854402326 -352.420028184764 691.5246609651974 -57.89540381115489 777.9467003990133 174.1331327273267C864.3687398328289 406.16166926580854 829.2928506043161 614.2450931599055 671.583262576075 805.1212218718326 "></path><path d="M754.3250220873317 188.2497795069421C835.3456840565341 405.77653251176866 802.4620379048033 600.8547424124845 654.6092991283272 779.8011130799164C506.75656035185136 958.7474837473483 156.1754906825778 1129.3657123667592 44.63187596024642 1047.192358710614C-66.91173876208495 965.0190050544688 73.14198060365675 658.6022780416413 119.19994846113764 385.36901553041923C165.25791631861853 112.13575301919718 133.39239800403044 -223.26079383836066 265.7101216761546 -264.32730134325186C398.02784534827856 -305.393808848143 673.3043601181294 -29.276973497884455 754.3250220873317 188.2497795069421C835.3456840565341 405.77653251176866 802.4620379048033 600.8547424124845 654.6092991283272 779.8011130799164 "></path><path d="M730.7034048108067 202.36642628655738C806.3226893153951 405.3913957577289 775.6312862404466 587.4643916650639 637.6353967157356 754.4810042879999C499.6395071910248 921.4976169109364 172.43050883303613 1080.74129695572 68.32313509219352 1004.0461668766511C-35.78423864864908 927.3510367975825 94.93256609270986 641.36209158561 137.920002759692 386.34437990846925C180.90743942667405 131.32666823132877 151.16628899972528 -181.71010883572518 274.6628310937077 -220.0388491736236C398.1593731876902 -258.36758951152206 655.0841203062176 -0.6585431846140182 730.7034048108067 202.36642628655738C806.3226893153951 405.3913957577289 775.6312862404466 587.4643916650639 637.6353967157356 754.4810042879999 "></path><path d="M707.0816654639688 216.48319513648528C777.2995725039441 405.00638107400164 748.8004125057773 574.0741629879553 620.6613722328315 729.1610175663964C492.5223319598857 884.2478721448372 188.68540491318197 1032.1170036149933 92.01427215382813 960.9000971130008C-4.656860605525708 889.6831906110085 116.72302951145042 624.1220271998914 156.63993498793388 387.3198663568321C196.5568404644173 150.51770551377285 168.94005792510762 -140.15930176277715 283.6154184409485 -175.75027493368287C398.2907789567894 -211.34124810458854 636.8637584239934 27.96000919896892 707.0816654639688 216.48319513648528C777.2995725039441 405.00638107400164 748.8004125057773 574.0741629879553 620.6613722328315 729.1610175663964 "></path><path d="M683.4600176698654 230.59984191610056C748.2765472452274 404.62124431996176 721.9696303238426 560.6838122405343 603.6874393026618 703.8409087744799C485.40524828148114 846.9980053084255 204.94039254606218 983.4925882039543 115.70550076819711 917.753905279038C26.47060899033204 852.015222354122 138.5135844829254 606.8818407438598 175.35995876891008 388.2952307348821C212.2063330548948 169.70862072590455 186.71391840322434 -98.60861676014167 292.5680973409236 -131.4618227640546C398.4222762786228 -164.31502876796753 618.6434880945036 56.578439512239356 683.4600176698654 230.59984191610056C748.2765472452274 404.62124431996176 721.9696303238426 560.6838122405343 603.6874393026618 703.8409087744799 "></path><path d="M659.8383393581838 244.71651921329408C719.2534914689322 404.2361380835001 695.1388176243296 547.2934920106918 586.7134758549139 678.5208305001415C478.2881340854983 809.7481689895917 221.19534966136433 934.8682033104931 139.39669886498797 874.6077439626533C57.59804806861166 814.3472846148138 160.30410893682227 589.6416848054066 194.0799520323082 389.2706256305105C227.85579512779418 188.89956645561438 204.48774836376293 -57.057901239928015 301.5207457233206 -87.1733400768482C398.5537430828782 -117.28877891376845 600.4231872474355 85.19690034308792 659.8383393581838 244.71651921329408C719.2534914689322 404.2361380835001 695.1388176243296 547.2934920106918 586.7134758549139 678.5208305001415 "></path><path d="M636.2167220816586 258.8332270280655C690.2304967277936 403.8510623646166 668.308065959973 533.9032022984272 569.7395734423224 653.2007827433818C471.17108092467174 772.4983631883363 237.45036781182267 886.2438489346105 163.08795799693507 831.4616131638468C88.72554818204753 776.6793773930835 182.09469442587533 572.4015593845317 212.80000633086257 390.246051043717C243.5053182358498 208.0905427029022 222.26163935945777 -15.507155202136289 310.47345514087385 -42.88482687206374C398.6852709222899 -70.26249854199119 582.2029474355238 113.81539169151455 636.2167220816586 258.8332270280655C690.2304967277936 403.8510623646166 668.308065959973 533.9032022984272 569.7395734423224 653.2007827433818 "></path><path d="M612.595028511188 272.9498738076809C661.2074256927094 403.46592561057673 641.4772380016709 520.5128515510063 552.7655947357854 627.8806739514655C464.05395146989986 735.2484963519246 253.7053096683357 837.6194335235709 186.77914083493692 788.315421329884C119.85297200153809 739.011409136197 203.88520362098313 555.1613729285003 231.51998433547163 391.221415421767C259.15476504996013 227.2814579150338 240.0354540612073 26.043529800499243 319.4260882644818 1.4036252975645311C398.8167224677562 -23.23627920537018 563.9826313296667 142.43382200478493 612.595028511188 272.9498738076809C661.2074256927094 403.46592561057673 641.4772380016709 520.5128515510063 552.7655947357854 627.8806739514655 "></path><path d="M588.9733501995066 287.06652058729617C632.1843699164144 403.0807888565371 614.646425302158 507.1225008035856 535.7916312880375 602.5605651595491C456.93683727391704 697.9986295155128 269.96026678363785 788.9950181125319 210.47033893172778 745.1692294959212C150.9804110798177 701.3434408793105 225.67572807487994 537.9211864724691 250.23997759886976 392.19677979981725C274.8042271228595 246.4723731271655 257.80928402174595 67.59421480313472 328.3787366468788 45.692077467192746C398.94818927201163 23.789940131250773 545.7623304825987 171.05225231805537 588.9733501995066 287.06652058729617C632.1843699164144 403.0807888565371 614.646425302158 507.1225008035856 535.7916312880375 602.5605651595491 "></path><path d="M565.3516718878252 301.1832284020677C603.1613141401194 402.69571313765346 587.8156126026452 493.732211091321 518.8176678402897 577.240517402789C449.8197230779342 660.7488237142572 286.21522389893994 740.370663736649 234.16153702851864 702.0230986971146C182.10785015809734 663.6755336575803 247.4662525287768 520.681061051594 268.9599708622679 393.17220521302374C290.4536891957589 265.66334937445345 275.58311398228454 109.1449608409265 337.33138502927574 89.98059067197727C399.07965607626693 70.81622050302803 527.5420296355308 199.67074366648205 565.3516718878252 301.1832284020677C603.1613141401194 402.69571313765346 587.8156126026452 493.732211091321 518.8176678402897 577.240517402789 "></path><path d="M541.7300088349327 315.29993621683934C574.1382736226137 402.31063741876994 560.9848151619212 480.3419213790562 501.84371965133096 551.920469646029C442.70262414074057 623.4990179130018 302.4701962730311 691.7463093607662 257.85275038409856 658.8769678983081C213.23530449516602 626.00762643585 269.2567922414627 503.44093563071897 287.67997938445507 394.1476306262301C306.1031665274474 284.85432562174134 293.3569592016122 150.69570687871823 346.2840486704618 134.26910387676173C399.2111381393114 117.8425008748053 509.32174404725174 228.28923501490874 541.7300088349327 315.29993621683934C574.1382736226137 402.31063741876994 560.9848151619212 480.3419213790562 501.84371965133096 551.920469646029 "></path><path d="M518.1083610408293 329.4165982552437C545.1152483638969 401.92551592351924 534.1540329799865 466.95158589042455 484.8697867211612 526.6003761129018C435.58554046233587 586.2491663353791 318.7251839059113 643.1219092085162 281.54397899846754 615.7307913231343C244.36277409102377 588.3396734377527 291.04734721293767 486.2007644334767 306.4000031654313 395.12301026306943C321.7526591179249 304.04525609266204 311.1308196797289 192.24640714014282 355.2367275704369 178.55757130517907C399.34263546114494 164.86873547021537 491.1014737177619 256.90768058696824 518.1083610408293 329.4165982552437C545.1152483638969 401.92551592351924 534.1540329799865 466.95158589042455 484.8697867211612 526.6003761129018 "></path><path d="M494.4866827291478 343.53330607001527C516.0921925876017 401.54044020463573 507.3232202804736 453.56129617816 467.89582327341327 501.2803283561418C428.46842626635305 548.9993605341235 334.98014102121346 594.4975548326331 305.2351770952584 572.5846605243278C275.4902131693034 550.6717662160224 312.83787166683453 468.96063901260175 325.1199964288294 396.0984356762758C337.4021211908243 323.23623233994994 328.9046496402675 233.79715317793455 364.1893759528339 222.8460845099636C399.47410226540035 211.89501584199257 472.88117287069394 285.52617193539487 494.4866827291478 343.53330607001527C516.0921925876017 401.54044020463573 507.3232202804736 453.56129617816 467.89582327341327 501.2803283561418 "></path><path d="M470.86501967625543 357.6499528496306C487.0691520700959 401.1553034505959 480.4924228397497 440.17094543073904 450.92187508445454 475.96021956422544C421.35132732915935 511.74949369771184 351.2351133953046 545.873139421594 328.92639045083837 529.438468690365C306.6176675063721 513.0037979591359 334.6284113795204 451.7204525565704 343.84000495101657 397.073800054326C353.05159852251273 342.4271475520816 346.67849485959516 275.3478381805701 373.14203959401993 267.1345366795918C399.60558432844476 258.9212351786136 454.66088728241493 314.1446022486653 470.86501967625543 357.6499528496306C487.0691520700959 401.1553034505959 480.4924228397497 440.17094543073904 450.92187508445454 475.96021956422544 "></path><path d="M447.2433413645739 371.76663014682407C458.0460962938009 400.77019721413427 453.6616101402368 426.7806252008964 433.94791163670664 450.6401412898873C414.2342131331765 474.49965737887817 367.4900705106067 497.24875452813296 352.6175885476292 486.2923073739803C337.7451065846517 475.3358602198276 356.41893583341727 434.4802966181173 362.5599982144147 398.0491949499543C368.7010605954122 361.6180932817914 364.45232482013375 316.8985537007837 382.09468797641694 311.4230193667982C399.7370511327002 305.9474850328127 436.440586435347 342.76306307951387 447.2433413645739 371.76663014682407C458.0460962938009 400.77019721413427 453.6616101402368 426.7806252008964 433.94791163670664 450.6401412898873 "></path><path d="M423.6216783116815 385.88332270280654C429.023055776295 400.38510623646164 426.83081269951293 413.3903202298427 416.97396344774785 425.3200782743382C407.1171141959828 437.2498363188336 383.7450428846979 448.624384893461 376.30880190320914 443.1461613163847C368.8725609217204 437.66793773930834 378.20947554610314 417.24015593845314 381.2800067366019 399.0246051043717C384.3505379271006 380.80905427029023 382.2261700394614 358.4492844797864 391.047351617603 355.7115173127936C399.8685331957446 352.97375014580086 418.220300847068 371.38153916915144 423.6216783116815 385.88332270280654C429.023055776295 400.38510623646164 426.83081269951293 413.3903202298427 416.97396344774785 425.3200782743382 "></path></g></svg>